<svg width="1800" height="107" viewBox="0 0 1800 107" fill="none" xmlns="http://www.w3.org/2000/svg">
<line x1="87" y1="53" x2="840" y2="53" stroke="#F0CAFD" stroke-width="2" stroke-dasharray="10 10"/>
<line x1="907" y1="53" x2="1800" y2="52.9999" stroke="#F0CAFD" stroke-width="2" stroke-dasharray="10 10"/>
<g filter="url(#filter0_f_778_701)">
<path d="M53.5002 32.238L59.2428 47.7573L74.7621 53.4999L59.2428 59.2426L53.5002 74.7618L47.7575 59.2426L32.2383 53.4999L47.7575 47.7573L53.5002 32.238Z" fill="#FBFBFB"/>
</g>
<g filter="url(#filter1_f_778_701)">
<path d="M53.5 30L59.8471 47.1529L77 53.5L59.8471 59.8471L53.5 77L47.1529 59.8471L30 53.5L47.1529 47.1529L53.5 30Z" fill="#FBFBFB"/>
</g>
<g filter="url(#filter2_f_778_701)">
<path d="M873.5 32.238L879.243 47.7573L894.762 53.4999L879.243 59.2426L873.5 74.7618L867.758 59.2426L852.238 53.4999L867.758 47.7573L873.5 32.238Z" fill="#FBFBFB"/>
</g>
<g filter="url(#filter3_f_778_701)">
<path d="M873.5 30L879.847 47.1529L897 53.5L879.847 59.8471L873.5 77L867.153 59.8471L850 53.5L867.153 47.1529L873.5 30Z" fill="#FBFBFB"/>
</g>
<defs>
<filter id="filter0_f_778_701" x="30.2383" y="30.238" width="46.5239" height="46.5239" filterUnits="userSpaceOnUse" color-interpolation-filters="sRGB">
<feFlood flood-opacity="0" result="BackgroundImageFix"/>
<feBlend mode="normal" in="SourceGraphic" in2="BackgroundImageFix" result="shape"/>
<feGaussianBlur stdDeviation="1" result="effect1_foregroundBlur_778_701"/>
</filter>
<filter id="filter1_f_778_701" x="0" y="0" width="107" height="107" filterUnits="userSpaceOnUse" color-interpolation-filters="sRGB">
<feFlood flood-opacity="0" result="BackgroundImageFix"/>
<feBlend mode="normal" in="SourceGraphic" in2="BackgroundImageFix" result="shape"/>
<feGaussianBlur stdDeviation="15" result="effect1_foregroundBlur_778_701"/>
</filter>
<filter id="filter2_f_778_701" x="850.238" y="30.238" width="46.5239" height="46.5239" filterUnits="userSpaceOnUse" color-interpolation-filters="sRGB">
<feFlood flood-opacity="0" result="BackgroundImageFix"/>
<feBlend mode="normal" in="SourceGraphic" in2="BackgroundImageFix" result="shape"/>
<feGaussianBlur stdDeviation="1" result="effect1_foregroundBlur_778_701"/>
</filter>
<filter id="filter3_f_778_701" x="820" y="0" width="107" height="107" filterUnits="userSpaceOnUse" color-interpolation-filters="sRGB">
<feFlood flood-opacity="0" result="BackgroundImageFix"/>
<feBlend mode="normal" in="SourceGraphic" in2="BackgroundImageFix" result="shape"/>
<feGaussianBlur stdDeviation="15" result="effect1_foregroundBlur_778_701"/>
</filter>
</defs>
</svg>
